<svg xmlns="http://www.w3.org/2000/svg" viewBox="0 0 680 500" width="680" height="500">
  <defs><marker id="arr" markerWidth="8" markerHeight="6" refX="8" refY="3" orient="auto"><polygon points="0 0, 8 3, 0 6" fill="#EF4444"/></marker></defs>
  <rect width="680" height="500" fill="#F3F4F6"/>
  <!-- Panel 1: Excel Data -->
  <rect x="40" y="20" width="600" height="200" fill="#FFF" stroke="#D1D5DB" rx="8"/>
  <rect x="40" y="20" width="600" height="30" fill="#217346" rx="4"/>
  <text x="60" y="40" font-size="12" fill="#FFF">Insert</text>
  <rect x="60" y="70" width="200" height="120" fill="none" stroke="#3B82F6" stroke-width="2" stroke-dasharray="4 2" rx="4"/>
  <text x="80" y="100" font-size="12" fill="#374151">A1: Month, B1: Sales</text>
  <text x="80" y="130" font-size="12" fill="#374151">A2: Jan, B2: 100</text>
  <circle cx="50" cy="70" r="12" fill="#EF4444"/><text x="50" y="75" text-anchor="middle" fill="#FFF" font-size="12">①</text>
  <!-- Banner: Select Data -->
  <rect x="40" y="240" width="600" height="36" fill="#FEF3C7" rx="8"/>
  <text x="340" y="263" text-anchor="middle" font-size="13" fill="#92400E">🖱️ Drag to select data range (A1:B5)</text>
  <!-- Arrow -->
  <line x1="340" y1="284" x2="340" y2="316" stroke="#EF4444" marker-end="url(#arr)"/>
  <!-- Panel 2: Insert Chart -->
  <rect x="40" y="324" width="600" height="140" fill="#FFF" stroke="#D1D5DB" rx="8"/>
  <rect x="60" y="350" width="80" height="80" fill="#F3F4F6" rx="8"/>
  <text x="100" y="395" text-anchor="middle" font-size="11" fill="#374151">Column</text>
  <circle cx="50" cy="350" r="12" fill="#EF4444"/><text x="50" y="355" text-anchor="middle" fill="#FFF" font-size="12">②</text>
</svg>
