<svg xmlns="http://www.w3.org/2000/svg" viewBox="0 0 680 600" width="680" height="600">
  <defs><marker id="arr" markerWidth="8" markerHeight="6" refX="8" refY="3" orient="auto"><polygon points="0 0, 8 3, 0 6" fill="#EF4444"/></marker></defs>
  <rect width="680" height="600" fill="#F3F4F6"/>
  <!-- Panel 1: Login Form -->
  <rect x="40" y="20" width="600" height="300" fill="#FFF" stroke="#D1D5DB" rx="8"/>
  <text x="340" y="60" text-anchor="middle" font-size="16" fill="#374151" font-weight="bold">Login</text>
  <!-- Username -->
  <rect x="200" y="90" width="280" height="36" fill="#F9FAFB" stroke="#D1D5DB" rx="6"/>
  <text x="210" y="113" font-size="12" fill="#9CA3AF">Username</text>
  <circle cx="180" cy="108" r="12" fill="#EF4444"/><text x="180" y="113" text-anchor="middle" fill="#FFF" font-size="12">①</text>
  <!-- Banner: Type Username -->
  <rect x="40" y="340" width="600" height="36" fill="#FEF3C7" rx="8"/>
  <text x="340" y="363" text-anchor="middle" font-size="13" fill="#92400E">⌨️ Type your username</text>
  <!-- Password -->
  <rect x="200" y="150" width="280" height="36" fill="#F9FAFB" stroke="#D1D5DB" rx="6"/>
  <text x="210" y="173" font-size="12" fill="#9CA3AF">Password</text>
  <circle cx="180" cy="168" r="12" fill="#EF4444"/><text x="180" y="173" text-anchor="middle" fill="#FFF" font-size="12">②</text>
  <!-- Login Button -->
  <rect x="240" y="220" width="200" height="40" fill="#3B82F6" rx="8"/>
  <text x="340" y="245" text-anchor="middle" font-size="14" fill="#FFF">Log In</text>
  <circle cx="220" cy="220" r="12" fill="#EF4444"/><text x="220" y="225" text-anchor="middle" fill="#FFF" font-size="12">③</text>
</svg>
