<svg xmlns="http://www.w3.org/2000/svg" viewBox="0 0 680 400" width="680" height="400">
  <defs><marker id="arr" markerWidth="8" markerHeight="6" refX="8" refY="3" orient="auto"><polygon points="0 0, 8 3, 0 6" fill="#EF4444"/></marker></defs>
  <rect width="680" height="400" fill="#F3F4F6"/>
  <!-- Panel 1: Taskbar -->
  <rect x="40" y="20" width="600" height="80" fill="#FFF" stroke="#D1D5DB" rx="8"/>
  <rect x="40" y="60" width="600" height="40" fill="#E5E7EB" rx="4"/>
  <rect x="320" y="68" width="24" height="24" fill="#3B82F6" rx="6"/>
  <rect x="316" y="64" width="32" height="32" fill="none" stroke="#EF4444" stroke-width="1.5" stroke-dasharray="4 2" rx="6"/>
  <circle cx="300" cy="64" r="12" fill="#EF4444"/><text x="300" y="69" text-anchor="middle" fill="#FFF" font-size="12" font-family="sans-serif">①</text>
  <!-- Arrow -->
  <line x1="340" y1="108" x2="340" y2="140" stroke="#EF4444" marker-end="url(#arr)"/>
  <!-- Panel 2: Start Menu -->
  <rect x="40" y="148" width="600" height="220" fill="#FFF" stroke="#D1D5DB" rx="8"/>
  <rect x="240" y="160" width="200" height="196" fill="#FFF" stroke="#D1D5DB" rx="8"/>
  <rect x="320" y="220" width="60" height="60" fill="#F3F4F6" rx="8"/>
  <text x="350" y="255" text-anchor="middle" font-size="11" fill="#374151" font-family="sans-serif">Settings</text>
  <rect x="316" y="216" width="68" height="68" fill="none" stroke="#EF4444" stroke-width="1.5" stroke-dasharray="4 2" rx="8"/>
  <circle cx="300" cy="216" r="12" fill="#EF4444"/><text x="300" y="221" text-anchor="middle" fill="#FFF" font-size="12" font-family="sans-serif">②</text>
</svg>
